<?xml version="1.0" encoding="UTF-8"?>
<svg xmlns="http://www.w3.org/2000/svg" xmlns:xlink="http://www.w3.org/1999/xlink" width="252pt" height="144pt" viewBox="0 0 252 144" version="1.1">
<g id="surface1">
<rect x="0" y="0" width="252" height="144" style="fill:rgb(92.941284%,92.941284%,89.019775%);fill-opacity:1;stroke:none;"/>
<path style=" stroke:none;fill-rule:nonzero;fill:rgb(19.215393%,16.470337%,35.293579%);fill-opacity:1;" d="M 147.257813 57 L 128.511719 75.746094 C 127.234375 77.023438 125.164063 77.023438 123.886719 75.746094 L 104.742188 56.601563 C 103.464844 55.324219 103.464844 53.257813 104.742188 51.980469 L 123.488281 33.230469 C 124.765625 31.953125 126.835938 31.953125 128.113281 33.230469 L 147.257813 52.378906 C 148.535156 53.652344 148.535156 55.722656 147.257813 57 "/>
<path style="fill:none;stroke-width:1;stroke-linecap:butt;stroke-linejoin:miter;stroke:rgb(19.215393%,16.470337%,35.293579%);stroke-opacity:1;stroke-miterlimit:10;" d="M -0.0009875 -0.001 L -18.747081 -18.747094 C -20.024425 -20.024438 -22.094738 -20.024438 -23.372081 -18.747094 L -42.516613 0.397437 C -43.793956 1.674781 -43.793956 3.741187 -42.516613 5.018531 L -23.770519 23.768531 C -22.493175 25.045875 -20.422863 25.045875 -19.145519 23.768531 L -0.0009875 4.620094 C 1.276356 3.346656 1.276356 1.276344 -0.0009875 -0.001 Z M -0.0009875 -0.001 " transform="matrix(1,0,0,-1,147.2588,56.999)"/>
<path style=" stroke:none;fill-rule:nonzero;fill:rgb(100%,100%,100%);fill-opacity:1;" d="M 125.441406 37.722656 C 125.441406 39.707031 125.378906 41.191406 125.464844 42.667969 C 125.519531 43.640625 124.921875 44.152344 124.3125 44.636719 C 123.375 45.390625 123.167969 45.976563 124.253906 46.84375 C 125.320313 47.699219 126.183594 48.796875 127.199219 49.722656 C 127.820313 50.285156 127.808594 50.640625 127.195313 51.214844 C 125.773438 52.546875 124.378906 53.910156 123.070313 55.347656 C 122.347656 56.132813 121.925781 55.925781 121.320313 55.261719 C 120.390625 54.246094 119.347656 53.34375 118.429688 52.324219 C 117.824219 51.652344 117.441406 51.484375 116.703125 52.234375 C 114.980469 53.980469 114.933594 53.929688 116.632813 55.632813 C 118.859375 57.859375 121.03125 60.144531 123.335938 62.289063 C 124.382813 63.269531 124.921875 64.257813 124.765625 65.707031 C 124.644531 66.820313 124.742188 67.957031 124.742188 69.511719 C 122.6875 67.457031 120.929688 65.695313 119.171875 63.933594 C 116.136719 60.898438 113.097656 57.859375 110.058594 54.824219 C 109.628906 54.390625 109.097656 54.089844 109.835938 53.359375 C 114.945313 48.285156 120.015625 43.171875 125.441406 37.722656 "/>
<path style=" stroke:none;fill-rule:nonzero;fill:rgb(76.863098%,59.608459%,39.215088%);fill-opacity:1;" d="M 129.386719 41.023438 C 129.988281 41.761719 130.535156 42.550781 131.199219 43.226563 C 134.867188 46.929688 138.566406 50.605469 142.25 54.292969 C 142.726563 54.773438 143.34375 55.152344 142.542969 55.945313 C 137.910156 60.53125 133.3125 65.152344 128.503906 69.683594 C 128.488281 67.523438 127.359375 65.203125 129.695313 63.496094 C 130.492188 62.914063 130.207031 62.410156 129.617188 61.851563 C 128.535156 60.828125 127.542969 59.707031 126.433594 58.714844 C 125.675781 58.042969 125.769531 57.609375 126.46875 56.96875 C 127.652344 55.890625 128.816406 54.773438 129.863281 53.5625 C 130.667969 52.628906 131.1875 52.863281 131.890625 53.636719 C 132.851563 54.699219 133.960938 55.625 134.898438 56.703125 C 135.902344 57.859375 136.320313 56.789063 136.898438 56.289063 C 137.527344 55.742188 138.0625 55.285156 137.125 54.40625 C 134.871094 52.285156 132.804688 49.972656 130.515625 47.894531 C 129.203125 46.707031 128.601563 45.445313 128.832031 43.703125 C 128.933594 42.941406 128.847656 42.152344 128.847656 41.375 C 129.027344 41.257813 129.207031 41.140625 129.386719 41.023438 "/>
<path style="fill-rule:nonzero;fill:rgb(19.215393%,16.470337%,35.293579%);fill-opacity:1;stroke-width:1;stroke-linecap:butt;stroke-linejoin:miter;stroke:rgb(19.215393%,16.470337%,35.293579%);stroke-opacity:1;stroke-miterlimit:10;" d="M 220.625 32.273438 L 31.375 32.273438 L 31.375 60.167969 L 220.625 60.167969 Z M 220.625 32.273438 " transform="matrix(1,0,0,-1,0,144)"/>
<path style=" stroke:none;fill-rule:nonzero;fill:rgb(76.863098%,59.608459%,39.215088%);fill-opacity:1;" d="M 201.320313 96.402344 C 201.320313 95.523438 201.410156 94.71875 201.300781 93.941406 C 201.132813 92.722656 201.671875 92.335938 202.796875 92.21875 C 207.675781 91.707031 211.925781 95.257813 212.324219 100.242188 C 212.707031 105.015625 208.949219 109.148438 204.011719 109.375 C 199.304688 109.59375 195.230469 105.675781 195.203125 100.867188 C 195.179688 96.796875 195.226563 92.726563 195.175781 88.65625 C 195.164063 87.664063 195.367188 87.265625 196.464844 87.296875 C 198.890625 87.363281 198.894531 87.296875 198.894531 89.777344 C 198.894531 93.492188 198.867188 97.210938 198.910156 100.925781 C 198.9375 103.496094 200.941406 105.507813 203.519531 105.679688 C 206.007813 105.84375 208.222656 103.984375 208.601563 101.414063 C 208.960938 98.980469 207.339844 96.613281 204.917969 96.015625 C 203.714844 95.722656 202.558594 96 201.320313 96.402344 "/>
<path style=" stroke:none;fill-rule:nonzero;fill:rgb(100%,100%,100%);fill-opacity:1;" d="M 69.566406 103.273438 C 68.414063 103.273438 67.265625 103.257813 66.113281 103.277344 C 65.566406 103.289063 65.261719 103.113281 65.324219 102.519531 C 65.328125 102.476563 65.324219 102.429688 65.324219 102.386719 C 65.15625 99.566406 65.15625 99.585938 68.011719 99.550781 C 68.667969 99.542969 69.710938 99.917969 69.90625 99.292969 C 70.117188 98.601563 69.355469 97.867188 68.789063 97.300781 C 66.984375 95.503906 64.109375 95.414063 62.171875 97.085938 C 60.28125 98.714844 59.917969 101.5625 61.34375 103.5625 C 62.847656 105.671875 65.65625 106.375 67.785156 104.964844 C 68.785156 104.300781 69.238281 104.613281 69.910156 105.3125 C 71.644531 107.121094 71.65625 107.195313 69.359375 108.410156 C 65.816406 110.289063 61.480469 109.421875 58.78125 106.304688 C 56.242188 103.367188 56.078125 98.859375 58.394531 95.75 C 60.859375 92.433594 65.089844 91.273438 68.796875 92.882813 C 72.464844 94.480469 74.527344 98.421875 73.832031 102.316406 C 73.6875 103.132813 73.355469 103.320313 72.617188 103.285156 C 71.601563 103.238281 70.582031 103.273438 69.566406 103.273438 "/>
<path style=" stroke:none;fill-rule:nonzero;fill:rgb(100%,100%,100%);fill-opacity:1;" d="M 98.453125 105.152344 L 98.453125 107.042969 C 98.453125 109.339844 98.453125 109.339844 96.117188 109.390625 C 91.421875 109.496094 87.472656 105.664063 87.371094 100.914063 C 87.273438 96.261719 91.089844 92.277344 95.71875 92.195313 C 100.539063 92.113281 104.488281 95.800781 104.566406 100.511719 C 104.609375 103.121094 104.550781 105.734375 104.59375 108.34375 C 104.605469 109.113281 104.457031 109.421875 103.589844 109.425781 C 100.867188 109.445313 100.867188 109.484375 100.867188 106.757813 C 100.867188 104.8125 100.878906 102.867188 100.863281 100.917969 C 100.839844 97.839844 98.460938 95.644531 95.460938 95.917969 C 92.789063 96.164063 90.714844 98.8125 91.144531 101.441406 C 91.636719 104.453125 94.304688 106.207031 97.296875 105.484375 C 97.636719 105.402344 97.964844 105.292969 98.453125 105.152344 "/>
<path style=" stroke:none;fill-rule:nonzero;fill:rgb(100%,100%,100%);fill-opacity:1;" d="M 106.984375 100.707031 C 106.984375 98.1875 107.011719 95.664063 106.96875 93.144531 C 106.957031 92.402344 107.148438 92.121094 107.921875 92.179688 C 109.457031 92.296875 111.007813 92.050781 112.542969 92.394531 C 116.371094 93.253906 119.136719 96.503906 119.222656 100.398438 C 119.28125 103.097656 119.222656 105.792969 119.253906 108.492188 C 119.261719 109.15625 119.085938 109.394531 118.371094 109.421875 C 115.535156 109.519531 115.535156 109.550781 115.535156 106.714844 C 115.535156 104.683594 115.5625 102.648438 115.519531 100.613281 C 115.472656 98.355469 113.992188 96.589844 111.824219 96.019531 C 110.988281 95.796875 110.660156 95.894531 110.671875 96.890625 C 110.730469 100.691406 110.671875 104.496094 110.714844 108.300781 C 110.726563 109.152344 110.515625 109.429688 109.625 109.425781 C 106.984375 109.410156 106.984375 109.449219 106.984375 106.8125 Z M 106.984375 100.707031 "/>
<path style=" stroke:none;fill-rule:nonzero;fill:rgb(100%,100%,100%);fill-opacity:1;" d="M 39.648438 100.234375 C 39.707031 97.175781 41.378906 94.507813 44.628906 92.996094 C 47.777344 91.53125 50.820313 91.964844 53.609375 94.070313 C 54.175781 94.496094 54.40625 94.863281 53.714844 95.347656 C 53.640625 95.398438 53.585938 95.472656 53.527344 95.539063 C 52.558594 96.589844 51.867188 97.59375 50.050781 96.347656 C 48.175781 95.058594 45.449219 96.136719 44.132813 98.085938 C 42.929688 99.871094 43.152344 102.507813 44.636719 104.101563 C 46.210938 105.792969 48.800781 106.265625 50.671875 104.945313 C 51.703125 104.214844 52.148438 104.621094 52.804688 105.296875 C 54.507813 107.054688 54.507813 107.164063 52.320313 108.363281 C 46.632813 111.480469 39.660156 107.320313 39.648438 100.234375 "/>
<path style=" stroke:none;fill-rule:nonzero;fill:rgb(100%,100%,100%);fill-opacity:1;" d="M 151.007813 94.753906 C 150.769531 95.011719 150.53125 95.273438 150.285156 95.523438 C 149.316406 96.519531 148.660156 97.636719 146.8125 96.355469 C 144.921875 95.042969 142.230469 96.117188 140.90625 98.082031 C 139.683594 99.894531 139.890625 102.472656 141.386719 104.097656 C 142.945313 105.785156 145.554688 106.265625 147.421875 104.949219 C 148.441406 104.230469 148.890625 104.601563 149.554688 105.289063 C 151.285156 107.078125 151.292969 107.136719 149.085938 108.355469 C 145.191406 110.5 140.261719 109.238281 137.75 105.445313 C 135.324219 101.785156 136.171875 96.773438 139.679688 94.007813 C 143.113281 91.304688 148.078125 91.621094 151.007813 94.753906 "/>
<path style=" stroke:none;fill-rule:nonzero;fill:rgb(76.863098%,59.608459%,39.215088%);fill-opacity:1;" d="M 164.601563 98.300781 C 164.601563 101.621094 164.574219 104.945313 164.621094 108.265625 C 164.632813 109.140625 164.367188 109.402344 163.5 109.40625 C 160.90625 109.425781 160.90625 109.460938 160.90625 106.84375 C 160.90625 100.820313 160.9375 94.800781 160.878906 88.777344 C 160.867188 87.632813 161.121094 87.242188 162.328125 87.292969 C 164.597656 87.390625 164.601563 87.3125 164.601563 89.535156 C 164.601563 92.457031 164.601563 95.378906 164.601563 98.300781 "/>
<path style=" stroke:none;fill-rule:nonzero;fill:rgb(100%,100%,100%);fill-opacity:1;" d="M 127.859375 104.414063 C 127.863281 105.699219 127.824219 106.980469 127.875 108.261719 C 127.910156 109.078125 127.730469 109.429688 126.796875 109.425781 C 124.15625 109.417969 124.15625 109.464844 124.15625 106.808594 C 124.15625 104.992188 124.164063 103.183594 124.152344 101.367188 C 124.132813 98.261719 122.851563 96.617188 119.832031 95.945313 C 119.296875 95.828125 119.195313 95.632813 119.21875 95.183594 C 119.238281 94.828125 119.222656 94.472656 119.222656 94.121094 C 119.222656 91.96875 119.222656 91.96875 121.285156 92.4375 C 125.109375 93.300781 127.734375 96.640625 127.851563 100.835938 C 127.886719 102.027344 127.859375 103.222656 127.859375 104.414063 "/>
<path style=" stroke:none;fill-rule:nonzero;fill:rgb(100%,100%,100%);fill-opacity:1;" d="M 76.398438 104.167969 C 76.402344 102.976563 76.386719 101.78125 76.402344 100.589844 C 76.460938 96.367188 79.640625 92.796875 83.808594 92.234375 C 84.578125 92.132813 85.125 92.1875 84.957031 93.1875 C 84.910156 93.488281 84.90625 93.8125 84.960938 94.113281 C 85.171875 95.332031 84.820313 95.914063 83.464844 96.199219 C 81.449219 96.625 80.152344 98.503906 80.121094 100.59375 C 80.082031 103.109375 80.0625 105.628906 80.125 108.144531 C 80.152344 109.105469 79.933594 109.449219 78.898438 109.429688 C 76.398438 109.375 76.398438 109.429688 76.398438 106.949219 C 76.398438 106.023438 76.398438 105.09375 76.398438 104.167969 "/>
<path style=" stroke:none;fill-rule:nonzero;fill:rgb(76.863098%,59.608459%,39.215088%);fill-opacity:1;" d="M 175.578125 104.148438 C 175.578125 105.605469 175.558594 107.066406 175.585938 108.523438 C 175.597656 109.132813 175.390625 109.355469 174.753906 109.402344 C 171.886719 109.613281 171.890625 109.632813 171.890625 106.824219 C 171.890625 104.835938 171.910156 102.847656 171.878906 100.859375 C 171.835938 98.28125 170.402344 96.476563 167.882813 95.988281 C 167.097656 95.835938 166.957031 95.523438 167.023438 94.875 C 167.042969 94.699219 167.027344 94.519531 167.027344 94.34375 C 167.023438 91.847656 167.023438 91.847656 169.417969 92.507813 C 172.851563 93.453125 175.449219 96.734375 175.5625 100.300781 C 175.601563 101.585938 175.570313 102.867188 175.570313 104.148438 Z M 175.578125 104.148438 "/>
<path style=" stroke:none;fill-rule:nonzero;fill:rgb(76.863098%,59.608459%,39.215088%);fill-opacity:1;" d="M 178.019531 97.105469 C 178.015625 95.824219 178.050781 94.542969 178.003906 93.261719 C 177.972656 92.492188 178.171875 92.183594 179.023438 92.171875 C 181.703125 92.136719 181.699219 92.097656 181.703125 94.765625 C 181.703125 96.667969 181.679688 98.570313 181.707031 100.46875 C 181.75 103.222656 183.085938 104.957031 185.792969 105.550781 C 186.78125 105.769531 186.648438 106.351563 186.652344 107 C 186.667969 109.71875 186.566406 109.792969 183.9375 108.949219 C 180.464844 107.832031 178.136719 104.644531 178.027344 100.820313 C 177.988281 99.582031 178.019531 98.34375 178.019531 97.105469 "/>
<path style=" stroke:none;fill-rule:nonzero;fill:rgb(100%,100%,100%);fill-opacity:1;" d="M 130.285156 100.683594 C 130.285156 98.167969 130.3125 95.648438 130.269531 93.128906 C 130.257813 92.378906 130.480469 92.179688 131.230469 92.171875 C 133.992188 92.144531 133.992188 92.113281 133.992188 94.917969 C 133.992188 99.335938 133.964844 103.753906 134.015625 108.167969 C 134.027344 109.167969 133.75 109.449219 132.753906 109.425781 C 130.285156 109.375 130.285156 109.425781 130.285156 106.914063 C 130.285156 104.835938 130.285156 102.761719 130.285156 100.683594 "/>
<path style=" stroke:none;fill-rule:nonzero;fill:rgb(76.863098%,59.608459%,39.215088%);fill-opacity:1;" d="M 189.078125 100.734375 C 189.078125 98.210938 189.097656 95.6875 189.0625 93.164063 C 189.050781 92.421875 189.269531 92.191406 190.03125 92.175781 C 192.773438 92.117188 192.773438 92.085938 192.773438 94.847656 C 192.773438 99.230469 192.738281 103.617188 192.800781 108 C 192.8125 109.089844 192.527344 109.449219 191.402344 109.414063 C 189.078125 109.34375 189.074219 109.40625 189.074219 107.113281 C 189.074219 104.988281 189.074219 102.863281 189.078125 100.734375 "/>
<path style=" stroke:none;fill-rule:nonzero;fill:rgb(100%,100%,100%);fill-opacity:1;" d="M 131.878906 90.988281 C 130.542969 90.914063 129.511719 89.769531 129.566406 88.425781 C 129.621094 87.046875 130.832031 85.976563 132.222656 86.082031 C 133.550781 86.183594 134.5625 87.363281 134.46875 88.703125 C 134.371094 90.050781 133.226563 91.066406 131.878906 90.988281 "/>
</g>
</svg>
